<svg width="66" height="65" viewBox="0 0 66 65" fill="none" xmlns="http://www.w3.org/2000/svg">
<path d="M19.3044 53.084L13.4707 47.2504C11.1373 44.9169 8.80384 44.9169 6.47038 47.2504L1.06102 52.6598L3.39447 54.9932L8.80384 49.5838C9.58165 48.806 10.3524 48.799 11.1161 49.5626L11.1373 49.5838L7.06435 53.6568C5.11274 55.6084 5.09153 57.5388 7.00071 59.448C8.98061 61.4279 10.9464 61.442 12.898 59.4904L19.3044 53.084ZM9.37659 57.157C8.99476 56.7751 9.00183 56.3862 9.39781 55.9902L13.4707 51.9173L14.6375 53.084L10.5645 57.157C10.1686 57.5529 9.77257 57.5529 9.37659 57.157ZM31.0777 41.3107L27.7472 44.6412L20.5772 44.8109L19.4104 45.9776L22.9106 49.4778L20.5772 51.8112L11.2434 42.4774L13.5768 40.144L17.077 43.6441L18.2437 42.4774L18.4346 35.2861L21.7439 31.9769L21.6378 41.4168L31.0777 41.3107ZM29.3889 24.3318L36.3893 31.3322L32.8891 34.8324C32.1113 35.6102 31.3335 35.6102 30.5557 34.8324L24.722 28.9987L22.3886 31.3322L28.2222 37.1658C30.5557 39.4993 32.8891 39.4993 35.2226 37.1658L39.8895 32.4989L42.2229 34.8324L44.6624 32.3929L39.9955 27.726L38.7227 28.9987L31.7224 21.9984L29.3889 24.3318ZM52.305 20.0834L49.9715 22.4169L48.9745 21.4198C48.5785 23.428 47.8149 24.9978 46.6835 26.1292C44.35 28.4626 42.0166 28.4626 39.6831 26.1292L33.6374 20.0834L35.9708 17.7499L42.0166 23.7957C42.7803 24.5594 43.5581 24.5594 44.35 23.7957C45.7077 22.0421 46.1319 20.1329 45.6228 18.0681L40.6377 13.083L42.9712 10.7496L52.305 20.0834ZM47.2138 12.4466C45.2339 10.4667 45.2198 8.50099 47.1714 6.54938L53.5778 0.142989L62.9116 9.4768L60.5781 11.8103L57.078 8.31007L56.0385 9.34952L56.6113 15.7771L53.5778 18.8106L53.005 12.383C51.0534 14.3346 49.123 14.3558 47.2138 12.4466ZM53.5778 4.80989L49.5048 8.88283C49.1089 9.27881 49.123 9.68893 49.5473 10.1132C49.9008 10.4667 50.2756 10.4455 50.6716 10.0496L54.7445 5.97662L53.5778 4.80989Z" fill="#F8F200"/>
</svg>
